<svg width="24" height="24" viewBox="0 0 24 24" fill="none" xmlns="http://www.w3.org/2000/svg">
<path d="M20.4901 7.52002C20.4844 7.49366 20.4844 7.46638 20.4901 7.44002C20.4852 7.41694 20.4852 7.3931 20.4901 7.37002V7.28002L20.4301 7.13002C20.4057 7.08909 20.3754 7.05202 20.3401 7.02002L20.2501 6.94002H20.2001L16.2601 4.45002L12.5401 2.15002C12.454 2.08175 12.3555 2.03081 12.2501 2.00002H12.1701C12.0807 1.9851 11.9894 1.9851 11.9001 2.00002H11.8001C11.6839 2.02571 11.5725 2.06959 11.4701 2.13002L4.00007 6.78002L3.91007 6.85002L3.82007 6.93002L3.72007 7.00002L3.67007 7.06002L3.61007 7.21002V7.30002V7.36002C3.60035 7.42633 3.60035 7.49371 3.61007 7.56002V16.29C3.60973 16.46 3.6527 16.6272 3.73494 16.7759C3.81717 16.9246 3.93596 17.0499 4.08007 17.14L11.5801 21.78L11.7301 21.84H11.8101C11.9792 21.8937 12.1609 21.8937 12.3301 21.84H12.4101L12.5601 21.78L20.0001 17.21C20.1442 17.1199 20.263 16.9946 20.3452 16.8459C20.4274 16.6972 20.4704 16.53 20.4701 16.36V7.63002C20.4701 7.63002 20.4901 7.56002 20.4901 7.52002ZM12.0001 4.17002L13.7801 5.27002L8.19007 8.73002L6.40007 7.63002L12.0001 4.17002ZM11.0001 19.17L5.50007 15.81V9.42002L11.0001 12.82V19.17ZM12.0001 11.06L10.0901 9.91002L15.6801 6.44002L17.6001 7.63002L12.0001 11.06ZM18.5001 15.78L13.0001 19.2V12.82L18.5001 9.42002V15.78Z" fill="#324054"/>
</svg>
