<svg width="97" height="97" viewBox="0 0 97 97" fill="none" xmlns="http://www.w3.org/2000/svg">
<path fill-rule="evenodd" clip-rule="evenodd" d="M68.9166 61.9557C76.6942 61.9557 82.9992 55.6516 82.9992 47.8751C82.9992 40.0985 76.6942 33.7944 68.9166 33.7944C61.139 33.7944 54.834 40.0985 54.834 47.8751C54.834 55.6516 61.139 61.9557 68.9166 61.9557Z" fill="#6045FD"/>
<path fill-rule="evenodd" clip-rule="evenodd" d="M82.9166 97C90.6942 97 96.9992 90.6951 96.9992 82.9175C96.9992 75.1399 90.6942 68.835 82.9166 68.835C75.139 68.835 68.834 75.1399 68.834 82.9175C68.834 90.6951 75.139 97 82.9166 97Z" fill="#7861FF"/>
<path fill-rule="evenodd" clip-rule="evenodd" d="M28.0807 62.1613C35.8573 62.1613 42.1614 55.8572 42.1614 48.0806C42.1614 40.3041 35.8573 34 28.0807 34C20.3041 34 14 40.3041 14 48.0806C14 55.8572 20.3041 62.1613 28.0807 62.1613Z" fill="#6045FD"/>
<path fill-rule="evenodd" clip-rule="evenodd" d="M48.0807 28.1651C55.8573 28.1651 62.1614 21.8601 62.1614 14.0825C62.1614 6.30496 55.8573 0 48.0807 0C40.3041 0 34 6.30496 34 14.0825C34 21.8601 40.3041 28.1651 48.0807 28.1651Z" fill="#4F38FF"/>
<path fill-rule="evenodd" clip-rule="evenodd" d="M14.0826 97C21.8602 97 28.1652 90.6951 28.1652 82.9175C28.1652 75.1399 21.8602 68.835 14.0826 68.835C6.30499 68.835 0 75.1399 0 82.9175C0 90.6951 6.30499 97 14.0826 97Z" fill="#7861FF"/>
</svg>
