<svg xmlns="http://www.w3.org/2000/svg" xmlns:xlink="http://www.w3.org/1999/xlink" viewBox="0 0 300 204" width="300" height="204" preserveAspectRatio="xMidYMid meet" style="width: 100%; height: 100%; transform: translate3d(0px, 0px, 0px); content-visibility: visible;"><defs><clipPath id="__lottie_element_10976"><rect width="300" height="204" x="0" y="0"></rect></clipPath><clipPath id="__lottie_element_10978"><path d="M0,0 L300,0 L300,204 L0,204z"></path></clipPath><clipPath id="__lottie_element_10982"><path d="M0,0 L300,0 L300,204 L0,204z"></path></clipPath><clipPath id="__lottie_element_10987"><path d="M0,0 L300,0 L300,204 L0,204z"></path></clipPath><clipPath id="__lottie_element_10991"><path d="M0,0 L300,0 L300,204 L0,204z"></path></clipPath><clipPath id="__lottie_element_10995"><path d="M0,0 L300,0 L300,204 L0,204z"></path></clipPath><clipPath id="__lottie_element_11000"><path d="M0,0 L300,0 L300,204 L0,204z"></path></clipPath><clipPath id="__lottie_element_11004"><path d="M0,0 L300,0 L300,204 L0,204z"></path></clipPath><clipPath id="__lottie_element_11008"><path d="M0,0 L300,0 L300,204 L0,204z"></path></clipPath><clipPath id="__lottie_element_11012"><path d="M0,0 L300,0 L300,204 L0,204z"></path></clipPath><clipPath id="__lottie_element_11017"><path d="M0,0 L300,0 L300,204 L0,204z"></path></clipPath><clipPath id="__lottie_element_11021"><path d="M0,0 L300,0 L300,204 L0,204z"></path></clipPath><clipPath id="__lottie_element_11025"><path d="M0,0 L300,0 L300,204 L0,204z"></path></clipPath><clipPath id="__lottie_element_11030"><path d="M0,0 L300,0 L300,204 L0,204z"></path></clipPath><clipPath id="__lottie_element_11078"><path d="M0,0 L300,0 L300,204 L0,204z"></path></clipPath><clipPath id="__lottie_element_11083"><path d="M0,0 L300,0 L300,204 L0,204z"></path></clipPath><clipPath id="__lottie_element_11087"><path d="M0,0 L300,0 L300,204 L0,204z"></path></clipPath><clipPath id="__lottie_element_11092"><path d="M0,0 L300,0 L300,204 L0,204z"></path></clipPath><clipPath id="__lottie_element_11096"><path d="M0,0 L300,0 L300,204 L0,204z"></path></clipPath><clipPath id="__lottie_element_11101"><path d="M0,0 L300,0 L300,204 L0,204z"></path></clipPath><clipPath id="__lottie_element_11105"><path d="M0,0 L300,0 L300,204 L0,204z"></path></clipPath><clipPath id="__lottie_element_11109"><path d="M0,0 L300,0 L300,204 L0,204z"></path></clipPath><clipPath id="__lottie_element_11113"><path d="M0,0 L300,0 L300,204 L0,204z"></path></clipPath><clipPath id="__lottie_element_11117"><path d="M0,0 L300,0 L300,204 L0,204z"></path></clipPath><clipPath id="__lottie_element_11122"><path d="M0,0 L300,0 L300,204 L0,204z"></path></clipPath><clipPath id="__lottie_element_11126"><path d="M0,0 L300,0 L300,204 L0,204z"></path></clipPath><clipPath id="__lottie_element_11130"><path d="M0,0 L300,0 L300,204 L0,204z"></path></clipPath><clipPath id="__lottie_element_11135"><path d="M0,0 L300,0 L300,204 L0,204z"></path></clipPath><clipPath id="__lottie_element_11139"><path d="M0,0 L300,0 L300,204 L0,204z"></path></clipPath><clipPath id="__lottie_element_11538"><path d="M0,0 L300,0 L300,204 L0,204z"></path></clipPath><clipPath id="__lottie_element_11542"><path d="M0,0 L300,0 L300,204 L0,204z"></path></clipPath><clipPath id="__lottie_element_11546"><path d="M0,0 L300,0 L300,204 L0,204z"></path></clipPath><clipPath id="__lottie_element_11563"><path d="M0,0 L300,0 L300,204 L0,204z"></path></clipPath></defs><g clip-path="url(#__lottie_element_10976)"><g clip-path="url(#__lottie_element_10978)" transform="matrix(1,0,0,1,0,0)" opacity="1" style="display: block;"><g clip-path="url(#__lottie_element_11538)" transform="matrix(1,0,0,1,-121,-117)" opacity="1" style="display: block;"><g transform="matrix(0.07479999959468842,0,0,0.07479999959468842,166.9368896484375,107.61000061035156)" opacity="1" style="display: block;"><g opacity="1" transform="matrix(1,0,0,1,-226.4290008544922,-75)"><path fill="rgb(229,57,53)" fill-opacity="1" d=" M0,-50.7140007019043 C23.274999618530273,-50.7140007019043 42.143001556396484,-28.009000778198242 42.143001556396484,0 C42.143001556396484,28.009000778198242 23.274999618530273,50.7140007019043 0,50.7140007019043 C-23.274999618530273,50.7140007019043 -42.143001556396484,28.009000778198242 -42.143001556396484,0 C-42.143001556396484,-28.009000778198242 -23.274999618530273,-50.7140007019043 0,-50.7140007019043z"></path></g></g></g><g clip-path="url(#__lottie_element_10987)" transform="matrix(1,0,0,1,57,-44.77325439453125)" opacity="1" style="display: block;"><g transform="matrix(-0.027530822902917862,0.06954921782016754,-0.06954921782016754,-0.027530822902917862,138.55003356933594,115.68315124511719)" opacity="1" style="display: block;"><g opacity="1" transform="matrix(1,0,0,1,-226.4290008544922,-75)"><path fill="rgb(229,57,53)" fill-opacity="1" d=" M0,-50.7140007019043 C23.274999618530273,-50.7140007019043 42.143001556396484,-28.009000778198242 42.143001556396484,0 C42.143001556396484,28.009000778198242 23.274999618530273,50.7140007019043 0,50.7140007019043 C-23.274999618530273,50.7140007019043 -42.143001556396484,28.009000778198242 -42.143001556396484,0 C-42.143001556396484,-28.009000778198242 -23.274999618530273,-50.7140007019043 0,-50.7140007019043z"></path></g></g></g><g clip-path="url(#__lottie_element_10991)" transform="matrix(1,0,0,1,46,-117)" opacity="1" style="display: block;"><g transform="matrix(0.07479999959468842,0,0,0.07479999959468842,166.9368896484375,107.61000061035156)" opacity="1" style="display: block;"><g opacity="1" transform="matrix(1,0,0,1,-226.4290008544922,-75)"><path fill="rgb(229,57,53)" fill-opacity="1" d=" M0,-50.7140007019043 C23.274999618530273,-50.7140007019043 42.143001556396484,-28.009000778198242 42.143001556396484,0 C42.143001556396484,28.009000778198242 23.274999618530273,50.7140007019043 0,50.7140007019043 C-23.274999618530273,50.7140007019043 -42.143001556396484,28.009000778198242 -42.143001556396484,0 C-42.143001556396484,-28.009000778198242 -23.274999618530273,-50.7140007019043 0,-50.7140007019043z"></path></g></g></g><g clip-path="url(#__lottie_element_10995)" transform="matrix(1,0,0,1,-54,-110.01261138916016)" opacity="1" style="display: block;"><g transform="matrix(-0.014662297442555428,-0.002795913489535451,0.002795913489535451,-0.014662297442555428,146.8897247314453,100.26725006103516)" opacity="1" style="display: block;"><g opacity="1" transform="matrix(1,0,0,1,-226.4290008544922,-75)"><path fill="rgb(229,57,53)" fill-opacity="1" d=" M0,-50.7140007019043 C23.274999618530273,-50.7140007019043 42.143001556396484,-28.009000778198242 42.143001556396484,0 C42.143001556396484,28.009000778198242 23.274999618530273,50.7140007019043 0,50.7140007019043 C-23.274999618530273,50.7140007019043 -42.143001556396484,28.009000778198242 -42.143001556396484,0 C-42.143001556396484,-28.009000778198242 -23.274999618530273,-50.7140007019043 0,-50.7140007019043z"></path></g></g></g><g clip-path="url(#__lottie_element_11563)" transform="matrix(1,0,0,1,101,-116)" opacity="1" style="display: block;"><g transform="matrix(0.3700000047683716,0,0,0.3700000047683716,162.9499969482422,115.61563110351562)" opacity="1" style="display: block;"><g opacity="1" transform="matrix(1,0,0,1,-35,-35.5)"><path fill="rgb(253,216,53)" fill-opacity="1" d=" M8.328210578883533e-16,-13.60099983215332 C8.328210578883533e-16,-13.60099983215332 3.997527599334717,-5.502124786376953 3.997527599334717,-5.502124786376953 C3.997527599334717,-5.502124786376953 12.935319900512695,-4.202939987182617 12.935319900512695,-4.202939987182617 C12.935319900512695,-4.202939987182617 6.468135356903076,2.1016244888305664 6.468135356903076,2.1016244888305664 C6.468135356903076,2.1016244888305664 7.994467258453369,11.003439903259277 7.994467258453369,11.003439903259277 C7.994467258453369,11.003439903259277 4.164411544791758e-16,6.801000118255615 4.164411544791758e-16,6.801000118255615 C4.164411544791758e-16,6.801000118255615 -7.994467258453369,11.003439903259277 -7.994467258453369,11.003439903259277 C-7.994467258453369,11.003439903259277 -6.468135356903076,2.1016244888305664 -6.468135356903076,2.1016244888305664 C-6.468135356903076,2.1016244888305664 -12.935319900512695,-4.202939987182617 -12.935319900512695,-4.202939987182617 C-12.935319900512695,-4.202939987182617 -3.997527599334717,-5.502124786376953 -3.997527599334717,-5.502124786376953 C-3.997527599334717,-5.502124786376953 8.328210578883533e-16,-13.60099983215332 8.328210578883533e-16,-13.60099983215332z"></path></g></g></g><g clip-path="url(#__lottie_element_11000)" transform="matrix(1,0,0,1,-117,-116)" opacity="1" style="display: block;"><g transform="matrix(0.3700000047683716,0,0,0.3700000047683716,162.9499969482422,115.61563110351562)" opacity="1" style="display: block;"><g opacity="1" transform="matrix(1,0,0,1,-35,-35.5)"><path fill="rgb(253,216,53)" fill-opacity="1" d=" M8.328210578883533e-16,-13.60099983215332 C8.328210578883533e-16,-13.60099983215332 3.997527599334717,-5.502124786376953 3.997527599334717,-5.502124786376953 C3.997527599334717,-5.502124786376953 12.935319900512695,-4.202939987182617 12.935319900512695,-4.202939987182617 C12.935319900512695,-4.202939987182617 6.468135356903076,2.1016244888305664 6.468135356903076,2.1016244888305664 C6.468135356903076,2.1016244888305664 7.994467258453369,11.003439903259277 7.994467258453369,11.003439903259277 C7.994467258453369,11.003439903259277 4.164411544791758e-16,6.801000118255615 4.164411544791758e-16,6.801000118255615 C4.164411544791758e-16,6.801000118255615 -7.994467258453369,11.003439903259277 -7.994467258453369,11.003439903259277 C-7.994467258453369,11.003439903259277 -6.468135356903076,2.1016244888305664 -6.468135356903076,2.1016244888305664 C-6.468135356903076,2.1016244888305664 -12.935319900512695,-4.202939987182617 -12.935319900512695,-4.202939987182617 C-12.935319900512695,-4.202939987182617 -3.997527599334717,-5.502124786376953 -3.997527599334717,-5.502124786376953 C-3.997527599334717,-5.502124786376953 8.328210578883533e-16,-13.60099983215332 8.328210578883533e-16,-13.60099983215332z"></path></g></g></g><g clip-path="url(#__lottie_element_11004)" transform="matrix(1,0,0,1,64.28280639648438,-111.14096069335938)" opacity="1" style="display: block;"><g transform="matrix(0.07358159124851227,0.009290255606174469,-0.009290255606174469,0.07358159124851227,152.23348999023438,105.03289031982422)" opacity="1" style="display: block;"><g opacity="1" transform="matrix(1,0,0,1,-35,-35.5)"><path fill="rgb(253,216,53)" fill-opacity="1" d=" M8.328210578883533e-16,-13.60099983215332 C8.328210578883533e-16,-13.60099983215332 3.997527599334717,-5.502124786376953 3.997527599334717,-5.502124786376953 C3.997527599334717,-5.502124786376953 12.935319900512695,-4.202939987182617 12.935319900512695,-4.202939987182617 C12.935319900512695,-4.202939987182617 6.468135356903076,2.1016244888305664 6.468135356903076,2.1016244888305664 C6.468135356903076,2.1016244888305664 7.994467258453369,11.003439903259277 7.994467258453369,11.003439903259277 C7.994467258453369,11.003439903259277 4.164411544791758e-16,6.801000118255615 4.164411544791758e-16,6.801000118255615 C4.164411544791758e-16,6.801000118255615 -7.994467258453369,11.003439903259277 -7.994467258453369,11.003439903259277 C-7.994467258453369,11.003439903259277 -6.468135356903076,2.1016244888305664 -6.468135356903076,2.1016244888305664 C-6.468135356903076,2.1016244888305664 -12.935319900512695,-4.202939987182617 -12.935319900512695,-4.202939987182617 C-12.935319900512695,-4.202939987182617 -3.997527599334717,-5.502124786376953 -3.997527599334717,-5.502124786376953 C-3.997527599334717,-5.502124786376953 8.328210578883533e-16,-13.60099983215332 8.328210578883533e-16,-13.60099983215332z"></path></g></g></g><g clip-path="url(#__lottie_element_11008)" transform="matrix(1,0,0,1,-73.9746322631836,-60.06515121459961)" opacity="1" style="display: block;"><g transform="matrix(-0.07022570818662643,-0.5555793046951294,0.5555793046951294,-0.07022570818662643,167.9868621826172,79.97048950195312)" opacity="1" style="display: block;"><g opacity="1" transform="matrix(1,0,0,1,-35,-35.5)"><path fill="rgb(253,216,53)" fill-opacity="1" d=" M8.328210578883533e-16,-13.60099983215332 C8.328210578883533e-16,-13.60099983215332 3.997527599334717,-5.502124786376953 3.997527599334717,-5.502124786376953 C3.997527599334717,-5.502124786376953 12.935319900512695,-4.202939987182617 12.935319900512695,-4.202939987182617 C12.935319900512695,-4.202939987182617 6.468135356903076,2.1016244888305664 6.468135356903076,2.1016244888305664 C6.468135356903076,2.1016244888305664 7.994467258453369,11.003439903259277 7.994467258453369,11.003439903259277 C7.994467258453369,11.003439903259277 4.164411544791758e-16,6.801000118255615 4.164411544791758e-16,6.801000118255615 C4.164411544791758e-16,6.801000118255615 -7.994467258453369,11.003439903259277 -7.994467258453369,11.003439903259277 C-7.994467258453369,11.003439903259277 -6.468135356903076,2.1016244888305664 -6.468135356903076,2.1016244888305664 C-6.468135356903076,2.1016244888305664 -12.935319900512695,-4.202939987182617 -12.935319900512695,-4.202939987182617 C-12.935319900512695,-4.202939987182617 -3.997527599334717,-5.502124786376953 -3.997527599334717,-5.502124786376953 C-3.997527599334717,-5.502124786376953 8.328210578883533e-16,-13.60099983215332 8.328210578883533e-16,-13.60099983215332z"></path></g></g></g><g clip-path="url(#__lottie_element_11012)" transform="matrix(1,0,0,1,-5,-116)" opacity="1" style="display: block;"><g transform="matrix(0.5600000023841858,0,0,0.5600000023841858,169.60000610351562,122.60743713378906)" opacity="1" style="display: block;"><g opacity="1" transform="matrix(1,0,0,1,-35,-35.5)"><path fill="rgb(253,216,53)" fill-opacity="1" d=" M8.328210578883533e-16,-13.60099983215332 C8.328210578883533e-16,-13.60099983215332 3.997527599334717,-5.502124786376953 3.997527599334717,-5.502124786376953 C3.997527599334717,-5.502124786376953 12.935319900512695,-4.202939987182617 12.935319900512695,-4.202939987182617 C12.935319900512695,-4.202939987182617 6.468135356903076,2.1016244888305664 6.468135356903076,2.1016244888305664 C6.468135356903076,2.1016244888305664 7.994467258453369,11.003439903259277 7.994467258453369,11.003439903259277 C7.994467258453369,11.003439903259277 4.164411544791758e-16,6.801000118255615 4.164411544791758e-16,6.801000118255615 C4.164411544791758e-16,6.801000118255615 -7.994467258453369,11.003439903259277 -7.994467258453369,11.003439903259277 C-7.994467258453369,11.003439903259277 -6.468135356903076,2.1016244888305664 -6.468135356903076,2.1016244888305664 C-6.468135356903076,2.1016244888305664 -12.935319900512695,-4.202939987182617 -12.935319900512695,-4.202939987182617 C-12.935319900512695,-4.202939987182617 -3.997527599334717,-5.502124786376953 -3.997527599334717,-5.502124786376953 C-3.997527599334717,-5.502124786376953 8.328210578883533e-16,-13.60099983215332 8.328210578883533e-16,-13.60099983215332z"></path></g></g></g><g clip-path="url(#__lottie_element_11542)" transform="matrix(1,0,0,1,0,-121)" opacity="1" style="display: block;"><g transform="matrix(0.4000000059604645,0,0,0.4000000059604645,165.8000030517578,114.69999694824219)" opacity="1" style="display: block;"><g opacity="1" transform="matrix(1,0,0,1,-39.5,-31.75)"><path fill="rgb(12,133,225)" fill-opacity="1" d=" M14.5,-4.75 C14.5,-4.75 14.5,4.75 14.5,4.75 C14.5,4.75 -14.5,4.75 -14.5,4.75 C-14.5,4.75 -14.5,-4.75 -14.5,-4.75 C-14.5,-4.75 14.5,-4.75 14.5,-4.75z"></path></g></g></g><g clip-path="url(#__lottie_element_11017)" transform="matrix(1,0,0,1,132,-120.99999237060547)" opacity="1" style="display: block;"><g transform="matrix(0.4000000059604645,0,0,0.4000000059604645,165.8000030517578,114.69999694824219)" opacity="1" style="display: block;"><g opacity="1" transform="matrix(1,0,0,1,-39.5,-31.75)"><path fill="rgb(12,133,225)" fill-opacity="1" d=" M14.5,-4.75 C14.5,-4.75 14.5,4.75 14.5,4.75 C14.5,4.75 -14.5,4.75 -14.5,4.75 C-14.5,4.75 -14.5,-4.75 -14.5,-4.75 C-14.5,-4.75 14.5,-4.75 14.5,-4.75z"></path></g></g></g><g clip-path="url(#__lottie_element_11021)" transform="matrix(1,0,0,1,-4.9738922119140625,-82.83970642089844)" opacity="1" style="display: block;"><g transform="matrix(-0.2143545001745224,-0.33771607279777527,0.33771607279777527,-0.2143545001745224,152.25547790527344,81.85446166992188)" opacity="1" style="display: block;"><g opacity="1" transform="matrix(1,0,0,1,-39.5,-31.75)"><path fill="rgb(12,133,225)" fill-opacity="1" d=" M14.5,-4.75 C14.5,-4.75 14.5,4.75 14.5,4.75 C14.5,4.75 -14.5,4.75 -14.5,4.75 C-14.5,4.75 -14.5,-4.75 -14.5,-4.75 C-14.5,-4.75 14.5,-4.75 14.5,-4.75z"></path></g></g></g><g clip-path="url(#__lottie_element_11025)" transform="matrix(1,0,0,1,110.026123046875,-82.83970642089844)" opacity="1" style="display: block;"><g transform="matrix(-0.2143545001745224,-0.33771607279777527,0.33771607279777527,-0.2143545001745224,152.25547790527344,81.85446166992188)" opacity="1" style="display: block;"><g opacity="1" transform="matrix(1,0,0,1,-39.5,-31.75)"><path fill="rgb(12,133,225)" fill-opacity="1" d=" M14.5,-4.75 C14.5,-4.75 14.5,4.75 14.5,4.75 C14.5,4.75 -14.5,4.75 -14.5,4.75 C-14.5,4.75 -14.5,-4.75 -14.5,-4.75 C-14.5,-4.75 14.5,-4.75 14.5,-4.75z"></path></g></g></g><g clip-path="url(#__lottie_element_11546)" transform="matrix(1,0,0,1,-73,-121)" opacity="1" style="display: block;"><g transform="matrix(0.4000000059604645,0,0,0.4000000059604645,165.8000030517578,114.69999694824219)" opacity="1" style="display: block;"><g opacity="1" transform="matrix(1,0,0,1,-39.5,-31.75)"><path fill="rgb(12,133,225)" fill-opacity="1" d=" M14.5,-4.75 C14.5,-4.75 14.5,4.75 14.5,4.75 C14.5,4.75 -14.5,4.75 -14.5,4.75 C-14.5,4.75 -14.5,-4.75 -14.5,-4.75 C-14.5,-4.75 14.5,-4.75 14.5,-4.75z"></path></g></g></g><g clip-path="url(#__lottie_element_11030)" transform="matrix(1,0,0,1,-140.55694580078125,-87.63442993164062)" opacity="1" style="display: block;"><g transform="matrix(-0.2549912929534912,-0.3081873655319214,0.3081873655319214,-0.2549912929534912,149.71279907226562,81.73062896728516)" opacity="1" style="display: block;"><g opacity="1" transform="matrix(1,0,0,1,-39.5,-31.75)"><path fill="rgb(12,133,225)" fill-opacity="1" d=" M14.5,-4.75 C14.5,-4.75 14.5,4.75 14.5,4.75 C14.5,4.75 -14.5,4.75 -14.5,4.75 C-14.5,4.75 -14.5,-4.75 -14.5,-4.75 C-14.5,-4.75 14.5,-4.75 14.5,-4.75z"></path></g></g></g></g><g clip-path="url(#__lottie_element_10982)" transform="matrix(1,0,0,1,0,0)" opacity="1" style="display: block;"><g clip-path="url(#__lottie_element_11078)" transform="matrix(1,0,0,1,-120.13360595703125,1.827392578125)" opacity="1" style="display: block;"><g transform="matrix(-0.07465273141860962,-0.00469147739931941,0.00469147739931941,-0.07465273141860962,133.4483184814453,95.33876037597656)" opacity="1" style="display: block;"><g opacity="1" transform="matrix(1,0,0,1,-226.4290008544922,-75)"><path fill="rgb(229,57,53)" fill-opacity="1" d=" M0,-50.7140007019043 C23.274999618530273,-50.7140007019043 42.143001556396484,-28.009000778198242 42.143001556396484,0 C42.143001556396484,28.009000778198242 23.274999618530273,50.7140007019043 0,50.7140007019043 C-23.274999618530273,50.7140007019043 -42.143001556396484,28.009000778198242 -42.143001556396484,0 C-42.143001556396484,-28.009000778198242 -23.274999618530273,-50.7140007019043 0,-50.7140007019043z"></path></g></g></g><g clip-path="url(#__lottie_element_11083)" transform="matrix(1,0,0,1,70,116.00000762939453)" opacity="1" style="display: block;"><g transform="matrix(0.04008428752422333,0.06315290927886963,-0.06315290927886963,0.04008428752422333,154.33978271484375,119.30596923828125)" opacity="1" style="display: block;"><g opacity="1" transform="matrix(1,0,0,1,-226.4290008544922,-75)"><path fill="rgb(229,57,53)" fill-opacity="1" d=" M0,-50.7140007019043 C23.274999618530273,-50.7140007019043 42.143001556396484,-28.009000778198242 42.143001556396484,0 C42.143001556396484,28.009000778198242 23.274999618530273,50.7140007019043 0,50.7140007019043 C-23.274999618530273,50.7140007019043 -42.143001556396484,28.009000778198242 -42.143001556396484,0 C-42.143001556396484,-28.009000778198242 -23.274999618530273,-50.7140007019043 0,-50.7140007019043z"></path></g></g></g><g clip-path="url(#__lottie_element_11087)" transform="matrix(1,0,0,1,50.08543395996094,32.11738586425781)" opacity="1" style="display: block;"><g transform="matrix(-0.04768336936831474,-0.05763103812932968,0.05763103812932968,-0.04768336936831474,143.5254364013672,85.3744125366211)" opacity="1" style="display: block;"><g opacity="1" transform="matrix(1,0,0,1,-226.4290008544922,-75)"><path fill="rgb(229,57,53)" fill-opacity="1" d=" M0,-50.7140007019043 C23.274999618530273,-50.7140007019043 42.143001556396484,-28.009000778198242 42.143001556396484,0 C42.143001556396484,28.009000778198242 23.274999618530273,50.7140007019043 0,50.7140007019043 C-23.274999618530273,50.7140007019043 -42.143001556396484,28.009000778198242 -42.143001556396484,0 C-42.143001556396484,-28.009000778198242 -23.274999618530273,-50.7140007019043 0,-50.7140007019043z"></path></g></g></g><g clip-path="url(#__lottie_element_11092)" transform="matrix(1,0,0,1,-43.971702575683594,88.03738403320312)" opacity="1" style="display: block;"><g transform="matrix(0.054523248225450516,-0.05120796337723732,0.05120796337723732,0.054523248225450516,166.18624877929688,94.49427795410156)" opacity="1" style="display: block;"><g opacity="1" transform="matrix(1,0,0,1,-226.4290008544922,-75)"><path fill="rgb(229,57,53)" fill-opacity="1" d=" M0,-50.7140007019043 C23.274999618530273,-50.7140007019043 42.143001556396484,-28.009000778198242 42.143001556396484,0 C42.143001556396484,28.009000778198242 23.274999618530273,50.7140007019043 0,50.7140007019043 C-23.274999618530273,50.7140007019043 -42.143001556396484,28.009000778198242 -42.143001556396484,0 C-42.143001556396484,-28.009000778198242 -23.274999618530273,-50.7140007019043 0,-50.7140007019043z"></path></g></g></g><g clip-path="url(#__lottie_element_11096)" transform="matrix(1,0,0,1,98.09434509277344,-25.97573471069336)" opacity="1" style="display: block;"><g transform="matrix(0.2532634437084198,-0.2697362005710602,0.2697362005710602,0.2532634437084198,168.7902374267578,101.87907409667969)" opacity="1" style="display: block;"><g opacity="1" transform="matrix(1,0,0,1,-35,-35.5)"><path fill="rgb(253,216,53)" fill-opacity="1" d=" M8.328210578883533e-16,-13.60099983215332 C8.328210578883533e-16,-13.60099983215332 3.997527599334717,-5.502124786376953 3.997527599334717,-5.502124786376953 C3.997527599334717,-5.502124786376953 12.935319900512695,-4.202939987182617 12.935319900512695,-4.202939987182617 C12.935319900512695,-4.202939987182617 6.468135356903076,2.1016244888305664 6.468135356903076,2.1016244888305664 C6.468135356903076,2.1016244888305664 7.994467258453369,11.003439903259277 7.994467258453369,11.003439903259277 C7.994467258453369,11.003439903259277 4.164411544791758e-16,6.801000118255615 4.164411544791758e-16,6.801000118255615 C4.164411544791758e-16,6.801000118255615 -7.994467258453369,11.003439903259277 -7.994467258453369,11.003439903259277 C-7.994467258453369,11.003439903259277 -6.468135356903076,2.1016244888305664 -6.468135356903076,2.1016244888305664 C-6.468135356903076,2.1016244888305664 -12.935319900512695,-4.202939987182617 -12.935319900512695,-4.202939987182617 C-12.935319900512695,-4.202939987182617 -3.997527599334717,-5.502124786376953 -3.997527599334717,-5.502124786376953 C-3.997527599334717,-5.502124786376953 8.328210578883533e-16,-13.60099983215332 8.328210578883533e-16,-13.60099983215332z"></path></g></g></g><g clip-path="url(#__lottie_element_11101)" transform="matrix(1,0,0,1,-114.87605285644531,49.19183349609375)" opacity="1" style="display: block;"><g transform="matrix(-0.15756189823150635,-0.334774911403656,0.334774911403656,-0.15756189823150635,156.80471801757812,84.48475646972656)" opacity="1" style="display: block;"><g opacity="1" transform="matrix(1,0,0,1,-35,-35.5)"><path fill="rgb(253,216,53)" fill-opacity="1" d=" M8.328210578883533e-16,-13.60099983215332 C8.328210578883533e-16,-13.60099983215332 3.997527599334717,-5.502124786376953 3.997527599334717,-5.502124786376953 C3.997527599334717,-5.502124786376953 12.935319900512695,-4.202939987182617 12.935319900512695,-4.202939987182617 C12.935319900512695,-4.202939987182617 6.468135356903076,2.1016244888305664 6.468135356903076,2.1016244888305664 C6.468135356903076,2.1016244888305664 7.994467258453369,11.003439903259277 7.994467258453369,11.003439903259277 C7.994467258453369,11.003439903259277 4.164411544791758e-16,6.801000118255615 4.164411544791758e-16,6.801000118255615 C4.164411544791758e-16,6.801000118255615 -7.994467258453369,11.003439903259277 -7.994467258453369,11.003439903259277 C-7.994467258453369,11.003439903259277 -6.468135356903076,2.1016244888305664 -6.468135356903076,2.1016244888305664 C-6.468135356903076,2.1016244888305664 -12.935319900512695,-4.202939987182617 -12.935319900512695,-4.202939987182617 C-12.935319900512695,-4.202939987182617 -3.997527599334717,-5.502124786376953 -3.997527599334717,-5.502124786376953 C-3.997527599334717,-5.502124786376953 8.328210578883533e-16,-13.60099983215332 8.328210578883533e-16,-13.60099983215332z"></path></g></g></g><g clip-path="url(#__lottie_element_11105)" transform="matrix(1,0,0,1,62.55235290527344,95.38407897949219)" opacity="1" style="display: block;"><g transform="matrix(0.2532634437084198,-0.2697362005710602,0.2697362005710602,0.2532634437084198,168.7902374267578,101.87907409667969)" opacity="1" style="display: block;"><g opacity="1" transform="matrix(1,0,0,1,-35,-35.5)"><path fill="rgb(253,216,53)" fill-opacity="1" d=" M8.328210578883533e-16,-13.60099983215332 C8.328210578883533e-16,-13.60099983215332 3.997527599334717,-5.502124786376953 3.997527599334717,-5.502124786376953 C3.997527599334717,-5.502124786376953 12.935319900512695,-4.202939987182617 12.935319900512695,-4.202939987182617 C12.935319900512695,-4.202939987182617 6.468135356903076,2.1016244888305664 6.468135356903076,2.1016244888305664 C6.468135356903076,2.1016244888305664 7.994467258453369,11.003439903259277 7.994467258453369,11.003439903259277 C7.994467258453369,11.003439903259277 4.164411544791758e-16,6.801000118255615 4.164411544791758e-16,6.801000118255615 C4.164411544791758e-16,6.801000118255615 -7.994467258453369,11.003439903259277 -7.994467258453369,11.003439903259277 C-7.994467258453369,11.003439903259277 -6.468135356903076,2.1016244888305664 -6.468135356903076,2.1016244888305664 C-6.468135356903076,2.1016244888305664 -12.935319900512695,-4.202939987182617 -12.935319900512695,-4.202939987182617 C-12.935319900512695,-4.202939987182617 -3.997527599334717,-5.502124786376953 -3.997527599334717,-5.502124786376953 C-3.997527599334717,-5.502124786376953 8.328210578883533e-16,-13.60099983215332 8.328210578883533e-16,-13.60099983215332z"></path></g></g></g><g clip-path="url(#__lottie_element_11109)" transform="matrix(1,0,0,1,-76,127)" opacity="1" style="display: block;"><g transform="matrix(0.4907507300376892,0.2697475254535675,-0.2697475254535675,0.4907507300376892,157.2498321533203,129.50030517578125)" opacity="1" style="display: block;"><g opacity="1" transform="matrix(1,0,0,1,-35,-35.5)"><path fill="rgb(253,216,53)" fill-opacity="1" d=" M8.328210578883533e-16,-13.60099983215332 C8.328210578883533e-16,-13.60099983215332 3.997527599334717,-5.502124786376953 3.997527599334717,-5.502124786376953 C3.997527599334717,-5.502124786376953 12.935319900512695,-4.202939987182617 12.935319900512695,-4.202939987182617 C12.935319900512695,-4.202939987182617 6.468135356903076,2.1016244888305664 6.468135356903076,2.1016244888305664 C6.468135356903076,2.1016244888305664 7.994467258453369,11.003439903259277 7.994467258453369,11.003439903259277 C7.994467258453369,11.003439903259277 4.164411544791758e-16,6.801000118255615 4.164411544791758e-16,6.801000118255615 C4.164411544791758e-16,6.801000118255615 -7.994467258453369,11.003439903259277 -7.994467258453369,11.003439903259277 C-7.994467258453369,11.003439903259277 -6.468135356903076,2.1016244888305664 -6.468135356903076,2.1016244888305664 C-6.468135356903076,2.1016244888305664 -12.935319900512695,-4.202939987182617 -12.935319900512695,-4.202939987182617 C-12.935319900512695,-4.202939987182617 -3.997527599334717,-5.502124786376953 -3.997527599334717,-5.502124786376953 C-3.997527599334717,-5.502124786376953 8.328210578883533e-16,-13.60099983215332 8.328210578883533e-16,-13.60099983215332z"></path></g></g></g><g clip-path="url(#__lottie_element_11113)" transform="matrix(1,0,0,1,-12.499603271484375,53.68495178222656)" opacity="1" style="display: block;"><g transform="matrix(-0.1730869859457016,-0.5325794816017151,0.5325794816017151,-0.1730869859457016,163.54034423828125,76.99028778076172)" opacity="1" style="display: block;"><g opacity="1" transform="matrix(1,0,0,1,-35,-35.5)"><path fill="rgb(253,216,53)" fill-opacity="1" d=" M8.328210578883533e-16,-13.60099983215332 C8.328210578883533e-16,-13.60099983215332 3.997527599334717,-5.502124786376953 3.997527599334717,-5.502124786376953 C3.997527599334717,-5.502124786376953 12.935319900512695,-4.202939987182617 12.935319900512695,-4.202939987182617 C12.935319900512695,-4.202939987182617 6.468135356903076,2.1016244888305664 6.468135356903076,2.1016244888305664 C6.468135356903076,2.1016244888305664 7.994467258453369,11.003439903259277 7.994467258453369,11.003439903259277 C7.994467258453369,11.003439903259277 4.164411544791758e-16,6.801000118255615 4.164411544791758e-16,6.801000118255615 C4.164411544791758e-16,6.801000118255615 -7.994467258453369,11.003439903259277 -7.994467258453369,11.003439903259277 C-7.994467258453369,11.003439903259277 -6.468135356903076,2.1016244888305664 -6.468135356903076,2.1016244888305664 C-6.468135356903076,2.1016244888305664 -12.935319900512695,-4.202939987182617 -12.935319900512695,-4.202939987182617 C-12.935319900512695,-4.202939987182617 -3.997527599334717,-5.502124786376953 -3.997527599334717,-5.502124786376953 C-3.997527599334717,-5.502124786376953 8.328210578883533e-16,-13.60099983215332 8.328210578883533e-16,-13.60099983215332z"></path></g></g></g><g clip-path="url(#__lottie_element_11117)" transform="matrix(1,0,0,1,-0.712799072265625,0.952911376953125)" opacity="1" style="display: block;"><g transform="matrix(-0.39921244978904724,-0.02508811466395855,0.02508811466395855,-0.39921244978904724,135.02764892578125,88.33402252197266)" opacity="1" style="display: block;"><g opacity="1" transform="matrix(1,0,0,1,-39.5,-31.75)"><path fill="rgb(12,133,225)" fill-opacity="1" d=" M14.5,-4.75 C14.5,-4.75 14.5,4.75 14.5,4.75 C14.5,4.75 -14.5,4.75 -14.5,4.75 C-14.5,4.75 -14.5,-4.75 -14.5,-4.75 C-14.5,-4.75 14.5,-4.75 14.5,-4.75z"></path></g></g></g><g clip-path="url(#__lottie_element_11122)" transform="matrix(1,0,0,1,130.7200164794922,31.957321166992188)" opacity="1" style="display: block;"><g transform="matrix(-0.2549912929534912,-0.3081873655319214,0.3081873655319214,-0.2549912929534912,149.71279907226562,81.73062896728516)" opacity="1" style="display: block;"><g opacity="1" transform="matrix(1,0,0,1,-39.5,-31.75)"><path fill="rgb(12,133,225)" fill-opacity="1" d=" M14.5,-4.75 C14.5,-4.75 14.5,4.75 14.5,4.75 C14.5,4.75 -14.5,4.75 -14.5,4.75 C-14.5,4.75 -14.5,-4.75 -14.5,-4.75 C-14.5,-4.75 14.5,-4.75 14.5,-4.75z"></path></g></g></g><g clip-path="url(#__lottie_element_11126)" transform="matrix(1,0,0,1,24,118)" opacity="1" style="display: block;"><g transform="matrix(0.39921244978904724,0.02508811466395855,-0.02508811466395855,0.39921244978904724,164.97235107421875,115.66597747802734)" opacity="1" style="display: block;"><g opacity="1" transform="matrix(1,0,0,1,-39.5,-31.75)"><path fill="rgb(12,133,225)" fill-opacity="1" d=" M14.5,-4.75 C14.5,-4.75 14.5,4.75 14.5,4.75 C14.5,4.75 -14.5,4.75 -14.5,4.75 C-14.5,4.75 -14.5,-4.75 -14.5,-4.75 C-14.5,-4.75 14.5,-4.75 14.5,-4.75z"></path></g></g></g><g clip-path="url(#__lottie_element_11130)" transform="matrix(1,0,0,1,139,118)" opacity="1" style="display: block;"><g transform="matrix(0.39921244978904724,0.02508811466395855,-0.02508811466395855,0.39921244978904724,164.97235107421875,115.66597747802734)" opacity="1" style="display: block;"><g opacity="1" transform="matrix(1,0,0,1,-39.5,-31.75)"><path fill="rgb(12,133,225)" fill-opacity="1" d=" M14.5,-4.75 C14.5,-4.75 14.5,4.75 14.5,4.75 C14.5,4.75 -14.5,4.75 -14.5,4.75 C-14.5,4.75 -14.5,-4.75 -14.5,-4.75 C-14.5,-4.75 14.5,-4.75 14.5,-4.75z"></path></g></g></g><g clip-path="url(#__lottie_element_11135)" transform="matrix(1,0,0,1,-77.40528106689453,-20.376426696777344)" opacity="1" style="display: block;"><g transform="matrix(-0.3505091369152069,0.19272613525390625,-0.19272613525390625,-0.3505091369152069,130.0358428955078,98.48401641845703)" opacity="1" style="display: block;"><g opacity="1" transform="matrix(1,0,0,1,-39.5,-31.75)"><path fill="rgb(12,133,225)" fill-opacity="1" d=" M14.5,-4.75 C14.5,-4.75 14.5,4.75 14.5,4.75 C14.5,4.75 -14.5,4.75 -14.5,4.75 C-14.5,4.75 -14.5,-4.75 -14.5,-4.75 C-14.5,-4.75 14.5,-4.75 14.5,-4.75z"></path></g></g></g><g clip-path="url(#__lottie_element_11139)" transform="matrix(1,0,0,1,-124.29074096679688,116.67677307128906)" opacity="1" style="display: block;"><g transform="matrix(0.3992089331150055,-0.025144299492239952,0.025144299492239952,0.3992089331150055,166.56707763671875,113.68168640136719)" opacity="1" style="display: block;"><g opacity="1" transform="matrix(1,0,0,1,-39.5,-31.75)"><path fill="rgb(12,133,225)" fill-opacity="1" d=" M14.5,-4.75 C14.5,-4.75 14.5,4.75 14.5,4.75 C14.5,4.75 -14.5,4.75 -14.5,4.75 C-14.5,4.75 -14.5,-4.75 -14.5,-4.75 C-14.5,-4.75 14.5,-4.75 14.5,-4.75z"></path></g></g></g></g></g></svg>