<svg width="586" height="117" viewBox="0 0 586 117" fill="none" xmlns="http://www.w3.org/2000/svg">
<path d="M125.638 97.8C122.332 97.8 119.478 97.4267 117.078 96.68C114.732 95.88 112.812 94.92 111.318 93.8C109.878 92.68 108.785 91.56 108.038 90.44C107.345 89.2667 106.972 88.28 106.918 87.48C106.865 86.8933 107.052 86.4133 107.478 86.04C107.905 85.6667 108.332 85.48 108.758 85.48H116.518C116.678 85.48 116.838 85.5067 116.998 85.56C117.158 85.6133 117.318 85.7467 117.478 85.96C118.172 86.44 118.892 87 119.638 87.64C120.385 88.2267 121.238 88.7333 122.198 89.16C123.212 89.5867 124.465 89.8 125.958 89.8C127.718 89.8 129.212 89.4533 130.438 88.76C131.665 88.0133 132.278 86.9733 132.278 85.64C132.278 84.68 131.985 83.88 131.398 83.24C130.865 82.6 129.825 82.0133 128.278 81.48C126.732 80.9467 124.438 80.36 121.398 79.72C118.518 79.08 116.065 78.2267 114.038 77.16C112.012 76.0933 110.492 74.76 109.478 73.16C108.465 71.5067 107.958 69.5333 107.958 67.24C107.958 65.16 108.598 63.16 109.878 61.24C111.212 59.32 113.158 57.7467 115.718 56.52C118.278 55.24 121.478 54.6 125.318 54.6C128.252 54.6 130.812 54.9733 132.998 55.72C135.238 56.4133 137.105 57.32 138.598 58.44C140.092 59.5067 141.212 60.6267 141.958 61.8C142.758 62.92 143.185 63.9067 143.238 64.76C143.292 65.2933 143.132 65.7467 142.758 66.12C142.385 66.4933 141.958 66.68 141.478 66.68H134.358C134.092 66.68 133.852 66.6533 133.638 66.6C133.425 66.4933 133.238 66.36 133.078 66.2C132.438 65.7733 131.772 65.2933 131.078 64.76C130.438 64.1733 129.665 63.6667 128.758 63.24C127.852 62.8133 126.678 62.6 125.238 62.6C123.478 62.6 122.118 63 121.158 63.8C120.252 64.5467 119.798 65.5067 119.798 66.68C119.798 67.4267 120.038 68.12 120.518 68.76C120.998 69.4 121.985 69.9867 123.478 70.52C124.972 71.0533 127.238 71.6133 130.278 72.2C133.905 72.84 136.785 73.8 138.918 75.08C141.052 76.36 142.572 77.8533 143.478 79.56C144.438 81.2133 144.918 83 144.918 84.92C144.918 87.4267 144.172 89.6667 142.678 91.64C141.185 93.56 138.998 95.08 136.118 96.2C133.292 97.2667 129.798 97.8 125.638 97.8ZM171.598 97.8C168.291 97.8 165.438 97.4267 163.038 96.68C160.691 95.88 158.771 94.92 157.278 93.8C155.838 92.68 154.744 91.56 153.998 90.44C153.304 89.2667 152.931 88.28 152.878 87.48C152.824 86.8933 153.011 86.4133 153.438 86.04C153.864 85.6667 154.291 85.48 154.718 85.48H162.478C162.638 85.48 162.798 85.5067 162.958 85.56C163.118 85.6133 163.278 85.7467 163.438 85.96C164.131 86.44 164.851 87 165.598 87.64C166.344 88.2267 167.198 88.7333 168.158 89.16C169.171 89.5867 170.424 89.8 171.918 89.8C173.678 89.8 175.171 89.4533 176.398 88.76C177.624 88.0133 178.238 86.9733 178.238 85.64C178.238 84.68 177.944 83.88 177.358 83.24C176.824 82.6 175.784 82.0133 174.238 81.48C172.691 80.9467 170.398 80.36 167.358 79.72C164.478 79.08 162.024 78.2267 159.998 77.16C157.971 76.0933 156.451 74.76 155.438 73.16C154.424 71.5067 153.918 69.5333 153.918 67.24C153.918 65.16 154.558 63.16 155.838 61.24C157.171 59.32 159.118 57.7467 161.678 56.52C164.238 55.24 167.438 54.6 171.278 54.6C174.211 54.6 176.771 54.9733 178.958 55.72C181.198 56.4133 183.064 57.32 184.558 58.44C186.051 59.5067 187.171 60.6267 187.918 61.8C188.718 62.92 189.144 63.9067 189.198 64.76C189.251 65.2933 189.091 65.7467 188.718 66.12C188.344 66.4933 187.918 66.68 187.438 66.68H180.318C180.051 66.68 179.811 66.6533 179.598 66.6C179.384 66.4933 179.198 66.36 179.038 66.2C178.398 65.7733 177.731 65.2933 177.038 64.76C176.398 64.1733 175.624 63.6667 174.718 63.24C173.811 62.8133 172.638 62.6 171.198 62.6C169.438 62.6 168.078 63 167.118 63.8C166.211 64.5467 165.758 65.5067 165.758 66.68C165.758 67.4267 165.998 68.12 166.478 68.76C166.958 69.4 167.944 69.9867 169.438 70.52C170.931 71.0533 173.198 71.6133 176.238 72.2C179.864 72.84 182.744 73.8 184.878 75.08C187.011 76.36 188.531 77.8533 189.438 79.56C190.398 81.2133 190.878 83 190.878 84.92C190.878 87.4267 190.131 89.6667 188.638 91.64C187.144 93.56 184.958 95.08 182.078 96.2C179.251 97.2667 175.758 97.8 171.598 97.8ZM203.077 97C202.544 97 202.091 96.8133 201.717 96.44C201.344 96.0667 201.157 95.5867 201.157 95V57.4C201.157 56.8133 201.344 56.3333 201.717 55.96C202.091 55.5867 202.544 55.4 203.077 55.4H211.077C211.664 55.4 212.144 55.5867 212.517 55.96C212.891 56.3333 213.077 56.8133 213.077 57.4V95C213.077 95.5867 212.891 96.0667 212.517 96.44C212.144 96.8133 211.664 97 211.077 97H203.077ZM202.837 49C202.304 49 201.851 48.8133 201.477 48.44C201.104 48.0667 200.917 47.5867 200.917 47V40.6C200.917 40.0133 201.104 39.5333 201.477 39.16C201.851 38.7333 202.304 38.52 202.837 38.52H211.237C211.824 38.52 212.304 38.7333 212.677 39.16C213.104 39.5333 213.317 40.0133 213.317 40.6V47C213.317 47.5867 213.104 48.0667 212.677 48.44C212.304 48.8133 211.824 49 211.237 49H202.837ZM245.23 114.6C241.284 114.6 238.004 114.067 235.39 113C232.777 111.987 230.697 110.733 229.15 109.24C227.657 107.8 226.59 106.36 225.95 104.92C225.31 103.48 224.964 102.36 224.91 101.56C224.857 100.973 225.044 100.493 225.47 100.12C225.897 99.7467 226.377 99.56 226.91 99.56H235.47C235.95 99.56 236.35 99.6667 236.67 99.88C237.044 100.147 237.337 100.573 237.55 101.16C237.817 101.8 238.19 102.467 238.67 103.16C239.15 103.907 239.87 104.52 240.83 105C241.844 105.48 243.177 105.72 244.83 105.72C246.697 105.72 248.244 105.453 249.47 104.92C250.697 104.387 251.604 103.48 252.19 102.2C252.83 100.92 253.15 99.1867 253.15 97V91.64C251.87 93.0267 250.244 94.1733 248.27 95.08C246.35 95.9867 243.977 96.44 241.15 96.44C238.377 96.44 235.924 96.0133 233.79 95.16C231.71 94.2533 229.977 93 228.59 91.4C227.204 89.7467 226.137 87.7733 225.39 85.48C224.644 83.1867 224.217 80.6 224.11 77.72C224.057 76.28 224.057 74.8667 224.11 73.48C224.217 70.7067 224.644 68.1733 225.39 65.88C226.137 63.5867 227.204 61.6133 228.59 59.96C229.977 58.2533 231.71 56.9467 233.79 56.04C235.924 55.08 238.377 54.6 241.15 54.6C244.084 54.6 246.59 55.16 248.67 56.28C250.75 57.4 252.457 58.7867 253.79 60.44V57.4C253.79 56.8667 253.977 56.4133 254.35 56.04C254.724 55.6133 255.177 55.4 255.71 55.4H263.55C264.084 55.4 264.537 55.6133 264.91 56.04C265.337 56.4133 265.55 56.8667 265.55 57.4L265.63 95.88C265.63 99.88 264.857 103.267 263.31 106.04C261.764 108.813 259.47 110.92 256.43 112.36C253.444 113.853 249.71 114.6 245.23 114.6ZM244.83 87.08C246.75 87.08 248.297 86.6533 249.47 85.8C250.697 84.8933 251.604 83.7733 252.19 82.44C252.777 81.0533 253.097 79.6133 253.15 78.12C253.204 77.5333 253.23 76.7067 253.23 75.64C253.23 74.52 253.204 73.6667 253.15 73.08C253.097 71.5867 252.777 70.1733 252.19 68.84C251.604 67.4533 250.697 66.3333 249.47 65.48C248.297 64.6267 246.75 64.2 244.83 64.2C242.804 64.2 241.204 64.6533 240.03 65.56C238.857 66.4133 238.004 67.56 237.47 69C236.937 70.44 236.617 72.0133 236.51 73.72C236.457 75 236.457 76.2533 236.51 77.48C236.617 79.24 236.937 80.84 237.47 82.28C238.004 83.72 238.857 84.8933 240.03 85.8C241.204 86.6533 242.804 87.08 244.83 87.08ZM280.23 97C279.697 97 279.244 96.8133 278.87 96.44C278.497 96.0667 278.31 95.5867 278.31 95V57.4C278.31 56.8133 278.497 56.3333 278.87 55.96C279.244 55.5867 279.697 55.4 280.23 55.4H288.07C288.657 55.4 289.137 55.5867 289.51 55.96C289.884 56.3333 290.07 56.8133 290.07 57.4V60.52C291.457 58.8133 293.244 57.4 295.43 56.28C297.617 55.16 300.284 54.6 303.43 54.6C306.577 54.6 309.324 55.32 311.67 56.76C314.07 58.1467 315.937 60.2 317.27 62.92C318.657 65.5867 319.35 68.84 319.35 72.68V95C319.35 95.5867 319.137 96.0667 318.71 96.44C318.337 96.8133 317.884 97 317.35 97H308.87C308.284 97 307.804 96.8133 307.43 96.44C307.057 96.0667 306.87 95.5867 306.87 95V73.16C306.87 70.3333 306.177 68.1467 304.79 66.6C303.457 65 301.484 64.2 298.87 64.2C296.364 64.2 294.364 65 292.87 66.6C291.377 68.1467 290.63 70.3333 290.63 73.16V95C290.63 95.5867 290.444 96.0667 290.07 96.44C289.697 96.8133 289.244 97 288.71 97H280.23ZM333.455 97C332.922 97 332.469 96.8133 332.095 96.44C331.722 96.0667 331.535 95.5867 331.535 95V57.4C331.535 56.8133 331.722 56.3333 332.095 55.96C332.469 55.5867 332.922 55.4 333.455 55.4H340.895C341.429 55.4 341.882 55.5867 342.255 55.96C342.682 56.3333 342.895 56.8133 342.895 57.4V60.12C343.962 58.6267 345.429 57.3467 347.295 56.28C349.215 55.2133 351.482 54.6533 354.095 54.6C360.282 54.4933 364.522 56.84 366.815 61.64C368.042 59.56 369.802 57.88 372.095 56.6C374.442 55.2667 377.002 54.6 379.775 54.6C382.549 54.6 385.055 55.24 387.295 56.52C389.535 57.7467 391.295 59.6667 392.575 62.28C393.909 64.84 394.575 68.1467 394.575 72.2V95C394.575 95.5867 394.389 96.0667 394.015 96.44C393.642 96.8133 393.189 97 392.655 97H384.735C384.202 97 383.749 96.8133 383.375 96.44C383.002 96.0667 382.815 95.5867 382.815 95V72.84C382.815 70.6533 382.495 68.9467 381.855 67.72C381.215 66.44 380.362 65.5333 379.295 65C378.282 64.4667 377.135 64.2 375.855 64.2C374.735 64.2 373.642 64.4667 372.575 65C371.562 65.5333 370.709 66.44 370.015 67.72C369.375 68.9467 369.055 70.6533 369.055 72.84V95C369.055 95.5867 368.869 96.0667 368.495 96.44C368.122 96.8133 367.642 97 367.055 97H359.215C358.629 97 358.149 96.8133 357.775 96.44C357.402 96.0667 357.215 95.5867 357.215 95V72.84C357.215 70.6533 356.895 68.9467 356.255 67.72C355.615 66.44 354.762 65.5333 353.695 65C352.682 64.4667 351.562 64.2 350.335 64.2C349.215 64.2 348.122 64.4933 347.055 65.08C345.989 65.6133 345.109 66.4933 344.415 67.72C343.775 68.9467 343.455 70.6267 343.455 72.76V95C343.455 95.5867 343.269 96.0667 342.895 96.44C342.522 96.8133 342.069 97 341.535 97H333.455ZM425.43 97.8C419.296 97.8 414.416 96.0933 410.79 92.68C407.216 89.2667 405.323 84.3067 405.11 77.8C405.11 77.3733 405.11 76.8133 405.11 76.12C405.11 75.3733 405.11 74.7867 405.11 74.36C405.323 70.2533 406.256 66.7333 407.91 63.8C409.563 60.8133 411.883 58.5467 414.87 57C417.856 55.4 421.35 54.6 425.35 54.6C429.83 54.6 433.563 55.5333 436.55 57.4C439.59 59.2133 441.856 61.72 443.35 64.92C444.896 68.0667 445.67 71.6933 445.67 75.8V77.64C445.67 78.1733 445.456 78.6267 445.03 79C444.656 79.3733 444.203 79.56 443.67 79.56H417.51C417.51 79.6133 417.51 79.72 417.51 79.88C417.51 79.9867 417.51 80.0933 417.51 80.2C417.563 81.9067 417.883 83.48 418.47 84.92C419.11 86.3067 419.99 87.4267 421.11 88.28C422.283 89.1333 423.67 89.56 425.27 89.56C426.603 89.56 427.696 89.3733 428.55 89C429.403 88.6267 430.096 88.1733 430.63 87.64C431.216 87.1067 431.643 86.6533 431.91 86.28C432.39 85.7467 432.763 85.4267 433.03 85.32C433.35 85.16 433.83 85.08 434.47 85.08H442.79C443.323 85.08 443.75 85.24 444.07 85.56C444.443 85.8267 444.603 86.2267 444.55 86.76C444.496 87.6133 444.043 88.68 443.19 89.96C442.39 91.1867 441.19 92.4133 439.59 93.64C437.99 94.8133 435.99 95.8 433.59 96.6C431.243 97.4 428.523 97.8 425.43 97.8ZM417.51 72.28H433.19V72.12C433.19 70.2 432.87 68.5467 432.23 67.16C431.643 65.72 430.763 64.6 429.59 63.8C428.416 63 427.003 62.6 425.35 62.6C423.696 62.6 422.283 63 421.11 63.8C419.936 64.6 419.03 65.72 418.39 67.16C417.803 68.5467 417.51 70.2 417.51 72.12V72.28ZM458.187 97C457.653 97 457.2 96.8133 456.827 96.44C456.453 96.0667 456.267 95.5867 456.267 95V57.4C456.267 56.8133 456.453 56.3333 456.827 55.96C457.2 55.5867 457.653 55.4 458.187 55.4H466.027C466.613 55.4 467.093 55.5867 467.467 55.96C467.84 56.3333 468.027 56.8133 468.027 57.4V60.52C469.413 58.8133 471.2 57.4 473.387 56.28C475.573 55.16 478.24 54.6 481.387 54.6C484.533 54.6 487.28 55.32 489.627 56.76C492.027 58.1467 493.893 60.2 495.227 62.92C496.613 65.5867 497.307 68.84 497.307 72.68V95C497.307 95.5867 497.093 96.0667 496.667 96.44C496.293 96.8133 495.84 97 495.307 97H486.827C486.24 97 485.76 96.8133 485.387 96.44C485.013 96.0667 484.827 95.5867 484.827 95V73.16C484.827 70.3333 484.133 68.1467 482.747 66.6C481.413 65 479.44 64.2 476.827 64.2C474.32 64.2 472.32 65 470.827 66.6C469.333 68.1467 468.587 70.3333 468.587 73.16V95C468.587 95.5867 468.4 96.0667 468.027 96.44C467.653 96.8133 467.2 97 466.667 97H458.187ZM529.023 97C525.716 97 522.889 96.4667 520.543 95.4C518.196 94.28 516.409 92.5733 515.183 90.28C514.009 87.9867 513.423 85.1067 513.423 81.64V64.84H507.183C506.596 64.84 506.116 64.6533 505.743 64.28C505.369 63.9067 505.183 63.4267 505.183 62.84V57.4C505.183 56.8133 505.369 56.3333 505.743 55.96C506.116 55.5867 506.596 55.4 507.183 55.4H513.423V42.2C513.423 41.6133 513.609 41.1333 513.983 40.76C514.409 40.3867 514.889 40.2 515.423 40.2H523.263C523.849 40.2 524.329 40.3867 524.703 40.76C525.076 41.1333 525.263 41.6133 525.263 42.2V55.4H535.263C535.796 55.4 536.249 55.5867 536.623 55.96C536.996 56.3333 537.183 56.8133 537.183 57.4V62.84C537.183 63.4267 536.996 63.9067 536.623 64.28C536.249 64.6533 535.796 64.84 535.263 64.84H525.263V80.68C525.263 82.7067 525.609 84.3067 526.303 85.48C527.049 86.6 528.329 87.16 530.143 87.16H535.983C536.516 87.16 536.969 87.3467 537.343 87.72C537.716 88.0933 537.903 88.5467 537.903 89.08V95C537.903 95.5867 537.716 96.0667 537.343 96.44C536.969 96.8133 536.516 97 535.983 97H529.023ZM563.882 97.8C560.576 97.8 557.722 97.4267 555.322 96.68C552.976 95.88 551.056 94.92 549.562 93.8C548.122 92.68 547.029 91.56 546.282 90.44C545.589 89.2667 545.216 88.28 545.162 87.48C545.109 86.8933 545.296 86.4133 545.722 86.04C546.149 85.6667 546.576 85.48 547.002 85.48H554.762C554.922 85.48 555.082 85.5067 555.242 85.56C555.402 85.6133 555.562 85.7467 555.722 85.96C556.416 86.44 557.136 87 557.882 87.64C558.629 88.2267 559.482 88.7333 560.442 89.16C561.456 89.5867 562.709 89.8 564.202 89.8C565.962 89.8 567.456 89.4533 568.682 88.76C569.909 88.0133 570.522 86.9733 570.522 85.64C570.522 84.68 570.229 83.88 569.642 83.24C569.109 82.6 568.069 82.0133 566.522 81.48C564.976 80.9467 562.682 80.36 559.642 79.72C556.762 79.08 554.309 78.2267 552.282 77.16C550.256 76.0933 548.736 74.76 547.722 73.16C546.709 71.5067 546.202 69.5333 546.202 67.24C546.202 65.16 546.842 63.16 548.122 61.24C549.456 59.32 551.402 57.7467 553.962 56.52C556.522 55.24 559.722 54.6 563.562 54.6C566.496 54.6 569.056 54.9733 571.242 55.72C573.482 56.4133 575.349 57.32 576.842 58.44C578.336 59.5067 579.456 60.6267 580.202 61.8C581.002 62.92 581.429 63.9067 581.482 64.76C581.536 65.2933 581.376 65.7467 581.002 66.12C580.629 66.4933 580.202 66.68 579.722 66.68H572.602C572.336 66.68 572.096 66.6533 571.882 66.6C571.669 66.4933 571.482 66.36 571.322 66.2C570.682 65.7733 570.016 65.2933 569.322 64.76C568.682 64.1733 567.909 63.6667 567.002 63.24C566.096 62.8133 564.922 62.6 563.482 62.6C561.722 62.6 560.362 63 559.402 63.8C558.496 64.5467 558.042 65.5067 558.042 66.68C558.042 67.4267 558.282 68.12 558.762 68.76C559.242 69.4 560.229 69.9867 561.722 70.52C563.216 71.0533 565.482 71.6133 568.522 72.2C572.149 72.84 575.029 73.8 577.162 75.08C579.296 76.36 580.816 77.8533 581.722 79.56C582.682 81.2133 583.162 83 583.162 84.92C583.162 87.4267 582.416 89.6667 580.922 91.64C579.429 93.56 577.242 95.08 574.362 96.2C571.536 97.2667 568.042 97.8 563.882 97.8Z" fill="#2E55FF"/>
<path fill-rule="evenodd" clip-rule="evenodd" d="M68.9166 61.9557C76.6942 61.9557 82.9992 55.6516 82.9992 47.8751C82.9992 40.0985 76.6942 33.7944 68.9166 33.7944C61.139 33.7944 54.834 40.0985 54.834 47.8751C54.834 55.6516 61.139 61.9557 68.9166 61.9557Z" fill="#6045FD"/>
<path fill-rule="evenodd" clip-rule="evenodd" d="M82.9166 97C90.6942 97 96.9992 90.6951 96.9992 82.9175C96.9992 75.1399 90.6942 68.835 82.9166 68.835C75.139 68.835 68.834 75.1399 68.834 82.9175C68.834 90.6951 75.139 97 82.9166 97Z" fill="#7861FF"/>
<path fill-rule="evenodd" clip-rule="evenodd" d="M28.0807 62.1613C35.8573 62.1613 42.1614 55.8572 42.1614 48.0806C42.1614 40.3041 35.8573 34 28.0807 34C20.3041 34 14 40.3041 14 48.0806C14 55.8572 20.3041 62.1613 28.0807 62.1613Z" fill="#6045FD"/>
<path fill-rule="evenodd" clip-rule="evenodd" d="M48.0807 28.1651C55.8573 28.1651 62.1614 21.8601 62.1614 14.0825C62.1614 6.30496 55.8573 0 48.0807 0C40.3041 0 34 6.30496 34 14.0825C34 21.8601 40.3041 28.1651 48.0807 28.1651Z" fill="#4F38FF"/>
<path fill-rule="evenodd" clip-rule="evenodd" d="M14.0826 97C21.8602 97 28.1652 90.6951 28.1652 82.9175C28.1652 75.1399 21.8602 68.835 14.0826 68.835C6.30499 68.835 0 75.1399 0 82.9175C0 90.6951 6.30499 97 14.0826 97Z" fill="#7861FF"/>
</svg>
